<svg width="65" height="65" viewBox="0 0 65 65" fill="none" xmlns="http://www.w3.org/2000/svg">
<path d="M35.2082 51.4583C35.2082 52.3791 35.3165 53.2728 35.4519 54.1666H10.8332C9.39658 54.1666 8.01883 53.5959 7.00301 52.5801C5.98719 51.5643 5.4165 50.1865 5.4165 48.7499V16.2499C5.4165 13.2437 7.82692 10.8333 10.8332 10.8333H27.0832L32.4998 16.2499H54.1665C55.6031 16.2499 56.9808 16.8206 57.9967 17.8364C59.0125 18.8522 59.5832 20.23 59.5832 21.6666V37.402C57.1998 36.0208 54.4373 35.2083 51.4582 35.2083C42.4936 35.2083 35.2082 42.4937 35.2082 51.4583ZM54.1665 48.7499V40.6249H48.7498V48.7499H40.6248V54.1666H48.7498V62.2916H54.1665V54.1666H62.2915V48.7499H54.1665Z" fill="black"/>
</svg>
