<svg width="61" height="61" viewBox="0 0 61 61" fill="none" xmlns="http://www.w3.org/2000/svg">
<path d="M17.7915 53.375C16.3936 53.375 15.1973 52.8777 14.2027 51.883C13.2063 50.8867 12.7082 49.6896 12.7082 48.2917V15.25C11.988 15.25 11.384 15.0068 10.896 14.5205C10.4097 14.0325 10.1665 13.4285 10.1665 12.7083C10.1665 11.9882 10.4097 11.3841 10.896 10.8961C11.384 10.4098 11.988 10.1667 12.7082 10.1667H22.8748C22.8748 9.44653 23.1188 8.84246 23.6068 8.35446C24.0931 7.86815 24.6964 7.625 25.4165 7.625H35.5832C36.3033 7.625 36.9074 7.86815 37.3954 8.35446C37.8817 8.84246 38.1248 9.44653 38.1248 10.1667H48.2915C49.0116 10.1667 49.6149 10.4098 50.1012 10.8961C50.5892 11.3841 50.8332 11.9882 50.8332 12.7083C50.8332 13.4285 50.5892 14.0325 50.1012 14.5205C49.6149 15.0068 49.0116 15.25 48.2915 15.25V48.2917C48.2915 49.6896 47.7942 50.8867 46.7995 51.883C45.8032 52.8777 44.6061 53.375 43.2082 53.375H17.7915ZM22.8748 40.6667C22.8748 41.3868 23.1188 41.99 23.6068 42.4763C24.0931 42.9643 24.6964 43.2083 25.4165 43.2083C26.1366 43.2083 26.7407 42.9643 27.2287 42.4763C27.715 41.99 27.9582 41.3868 27.9582 40.6667V22.875C27.9582 22.1549 27.715 21.5508 27.2287 21.0628C26.7407 20.5765 26.1366 20.3333 25.4165 20.3333C24.6964 20.3333 24.0931 20.5765 23.6068 21.0628C23.1188 21.5508 22.8748 22.1549 22.8748 22.875V40.6667ZM33.0415 40.6667C33.0415 41.3868 33.2855 41.99 33.7735 42.4763C34.2598 42.9643 34.863 43.2083 35.5832 43.2083C36.3033 43.2083 36.9074 42.9643 37.3954 42.4763C37.8817 41.99 38.1248 41.3868 38.1248 40.6667V22.875C38.1248 22.1549 37.8817 21.5508 37.3954 21.0628C36.9074 20.5765 36.3033 20.3333 35.5832 20.3333C34.863 20.3333 34.2598 20.5765 33.7735 21.0628C33.2855 21.5508 33.0415 22.1549 33.0415 22.875V40.6667Z" fill="black"/>
</svg>
