<svg width="44" height="44" viewBox="0 0 44 44" fill="none" xmlns="http://www.w3.org/2000/svg">
<path fill-rule="evenodd" clip-rule="evenodd" d="M21.9999 25.8885L31.7221 35.6125C32.238 36.1283 32.9377 36.4182 33.6673 36.4182C34.3968 36.4182 35.0965 36.1283 35.6124 35.6125C36.1283 35.0966 36.4181 34.3969 36.4181 33.6673C36.4181 32.9377 36.1283 32.238 35.6124 31.7221L25.8866 22L35.6106 12.2778C35.8659 12.0223 36.0684 11.7191 36.2066 11.3854C36.3447 11.0517 36.4157 10.6941 36.4157 10.3329C36.4156 9.97173 36.3444 9.61411 36.2061 9.28047C36.0678 8.94683 35.8651 8.6437 35.6097 8.38837C35.3542 8.13305 35.051 7.93054 34.7173 7.79241C34.3836 7.65428 34.0259 7.58322 33.6648 7.58331C33.3036 7.58339 32.946 7.65461 32.6124 7.79291C32.2787 7.9312 31.9756 8.13385 31.7203 8.38929L21.9999 18.1115L12.2778 8.38929C12.0242 8.12652 11.7209 7.91688 11.3854 7.7726C11.05 7.62832 10.6892 7.55229 10.324 7.54894C9.95887 7.5456 9.59672 7.61501 9.25869 7.75312C8.92066 7.89124 8.61353 8.09529 8.3552 8.35337C8.09688 8.61145 7.89254 8.9184 7.7541 9.25629C7.61567 9.59419 7.54592 9.95628 7.54892 10.3214C7.55192 10.6866 7.62761 11.0475 7.77157 11.383C7.91554 11.7186 8.12489 12.0222 8.38743 12.276L18.1133 22L8.38926 31.7221C7.87337 32.238 7.58354 32.9377 7.58354 33.6673C7.58354 34.3969 7.87337 35.0966 8.38926 35.6125C8.90515 36.1283 9.60485 36.4182 10.3344 36.4182C11.064 36.4182 11.7637 36.1283 12.2796 35.6125L21.9999 25.8866V25.8885Z" fill="#706672"/>
</svg>
