<svg width="266" height="255" viewBox="0 0 266 255" fill="none" xmlns="http://www.w3.org/2000/svg">
<path d="M44.3332 212.5C38.2373 212.5 33.0208 210.421 28.6835 206.263C24.3388 202.098 22.1665 197.094 22.1665 191.25V63.75C22.1665 57.9062 24.3388 52.9054 28.6835 48.7475C33.0208 44.5825 38.2373 42.5 44.3332 42.5H110.833L133 63.75H221.667C227.762 63.75 232.983 65.8325 237.327 69.9975C241.665 74.1554 243.833 79.1562 243.833 85V191.25C243.833 197.094 241.665 202.098 237.327 206.263C232.983 210.421 227.762 212.5 221.667 212.5H44.3332ZM44.3332 63.75V191.25H221.667V85H123.856L101.689 63.75H44.3332Z" fill="black"/>
<path d="M106 122.5C106 124.416 104.718 129.312 107.164 129.994C107.998 130.227 108.527 123.028 107.164 122" stroke="black" stroke-width="16" stroke-linecap="round"/>
<path d="M159.336 122.5C159.336 124.416 158.054 129.312 160.5 129.994C161.334 130.227 161.863 123.028 160.5 122" stroke="black" stroke-width="16" stroke-linecap="round"/>
<path d="M76 150L187 168.5" stroke="black" stroke-width="11" stroke-linecap="round"/>
</svg>
