<svg width="118" height="113" viewBox="0 0 118 113" fill="none" xmlns="http://www.w3.org/2000/svg">
<path d="M19.6668 94.1667C16.9627 94.1667 14.6486 93.2454 12.7245 91.4029C10.7972 89.5572 9.8335 87.3396 9.8335 84.75V28.25C9.8335 25.6604 10.7972 23.4444 12.7245 21.6018C14.6486 19.7562 16.9627 18.8333 19.6668 18.8333H49.1668L59.0002 28.25H98.3335C101.038 28.25 103.353 29.1728 105.281 31.0185C107.205 32.861 108.167 35.0771 108.167 37.6667V84.75C108.167 87.3396 107.205 89.5572 105.281 91.4029C103.353 93.2454 101.038 94.1667 98.3335 94.1667H19.6668ZM19.6668 28.25V84.75H98.3335V37.6667H54.9439L45.1106 28.25H19.6668Z" fill="black"/>
</svg>
