<svg width="266" height="255" viewBox="0 0 266 255" fill="none" xmlns="http://www.w3.org/2000/svg">
<path d="M44.3332 212.5C38.2373 212.5 33.0208 210.421 28.6835 206.263C24.3388 202.098 22.1665 197.094 22.1665 191.25V63.75C22.1665 57.9062 24.3388 52.9054 28.6835 48.7475C33.0208 44.5825 38.2373 42.5 44.3332 42.5H110.833L133 63.75H221.667C227.762 63.75 232.983 65.8325 237.327 69.9975C241.665 74.1554 243.833 79.1562 243.833 85V191.25C243.833 197.094 241.665 202.098 237.327 206.263C232.983 210.421 227.762 212.5 221.667 212.5H44.3332ZM44.3332 63.75V191.25H221.667V85H123.856L101.689 63.75H44.3332Z" fill="black"/>
<path d="M106 120.5C106 122.416 104.718 127.312 107.164 127.994C107.998 128.227 108.527 121.028 107.164 120" stroke="black" stroke-width="16" stroke-linecap="round"/>
<path d="M159.336 120.5C159.336 122.416 158.054 127.312 160.5 127.994C161.334 128.227 161.863 121.028 160.5 120" stroke="black" stroke-width="16" stroke-linecap="round"/>
<path d="M164 162L101 154" stroke="black" stroke-width="11" stroke-linecap="round"/>
<path d="M85.9521 113.22C86.8083 113.149 87.5518 112.647 88.2275 112.152C90.7454 110.305 94.2889 108.593 97 107C101.976 104.077 106 101.387 110.676 97.9863" stroke="black" stroke-width="10" stroke-linecap="round"/>
<path d="M149.134 97.7366C152.737 97.8567 156.717 100.599 160 102C164.675 103.994 168.443 104.802 173.025 107.004C175.055 107.98 177.267 108.743 179.435 109.363C180.016 109.529 180.396 109.36 180.601 109.973" stroke="black" stroke-width="10" stroke-linecap="round"/>
</svg>
