<svg width="54" height="54" viewBox="0 0 54 54" fill="none" xmlns="http://www.w3.org/2000/svg">
<path d="M10.125 32.0625C8.78234 32.0625 7.49467 31.5291 6.54527 30.5797C5.59587 29.6303 5.0625 28.3427 5.0625 27C5.0625 25.6573 5.59587 24.3697 6.54527 23.4203C7.49467 22.4709 8.78234 21.9375 10.125 21.9375C11.4677 21.9375 12.7553 22.4709 13.7047 23.4203C14.6541 24.3697 15.1875 25.6573 15.1875 27C15.1875 28.3427 14.6541 29.6303 13.7047 30.5797C12.7553 31.5291 11.4677 32.0625 10.125 32.0625ZM27 32.0625C25.6573 32.0625 24.3697 31.5291 23.4203 30.5797C22.4709 29.6303 21.9375 28.3427 21.9375 27C21.9375 25.6573 22.4709 24.3697 23.4203 23.4203C24.3697 22.4709 25.6573 21.9375 27 21.9375C28.3427 21.9375 29.6303 22.4709 30.5797 23.4203C31.5291 24.3697 32.0625 25.6573 32.0625 27C32.0625 28.3427 31.5291 29.6303 30.5797 30.5797C29.6303 31.5291 28.3427 32.0625 27 32.0625ZM43.875 32.0625C42.5323 32.0625 41.2447 31.5291 40.2953 30.5797C39.3459 29.6303 38.8125 28.3427 38.8125 27C38.8125 25.6573 39.3459 24.3697 40.2953 23.4203C41.2447 22.4709 42.5323 21.9375 43.875 21.9375C45.2177 21.9375 46.5053 22.4709 47.4547 23.4203C48.4041 24.3697 48.9375 25.6573 48.9375 27C48.9375 28.3427 48.4041 29.6303 47.4547 30.5797C46.5053 31.5291 45.2177 32.0625 43.875 32.0625Z" fill="#878787"/>
</svg>
