<svg width="103" height="103" viewBox="0 0 103 103" fill="none" xmlns="http://www.w3.org/2000/svg">
<path d="M51.5002 82.4C40.771 82.4 31.2864 76.9067 25.7502 68.6667C25.8789 60.0833 42.9168 55.3625 51.5002 55.3625C60.0835 55.3625 77.1214 60.0833 77.2502 68.6667C74.4129 72.8914 70.5803 76.3537 66.0899 78.7486C61.5996 81.1434 56.5892 82.3974 51.5002 82.4ZM51.5002 21.4583C54.9148 21.4583 58.1896 22.8148 60.6042 25.2293C63.0187 27.6439 64.3752 30.9187 64.3752 34.3333C64.3752 37.748 63.0187 41.0228 60.6042 43.4373C58.1896 45.8519 54.9148 47.2083 51.5002 47.2083C48.0855 47.2083 44.8107 45.8519 42.3962 43.4373C39.9816 41.0228 38.6252 37.748 38.6252 34.3333C38.6252 30.9187 39.9816 27.6439 42.3962 25.2293C44.8107 22.8148 48.0855 21.4583 51.5002 21.4583ZM51.5002 8.58334C45.8643 8.58334 40.2836 9.69342 35.0767 11.8502C29.8698 14.0069 25.1387 17.1682 21.1535 21.1533C13.1051 29.2018 8.5835 40.1178 8.5835 51.5C8.5835 62.8822 13.1051 73.7982 21.1535 81.8467C25.1387 85.8319 29.8698 88.9931 35.0767 91.1499C40.2836 93.3066 45.8643 94.4167 51.5002 94.4167C62.8824 94.4167 73.7984 89.8951 81.8468 81.8467C89.8953 73.7982 94.4168 62.8822 94.4168 51.5C94.4168 27.7671 75.1043 8.58334 51.5002 8.58334Z" fill="black"/>
</svg>
