<svg width="80" height="80" viewBox="0 0 80 80" fill="none" xmlns="http://www.w3.org/2000/svg">
<path d="M40.0003 64.0001C31.667 64.0001 24.3003 59.7334 20.0003 53.3334C20.1003 46.6667 33.3337 43.0001 40.0003 43.0001C46.667 43.0001 59.9003 46.6667 60.0003 53.3334C57.7966 56.6148 54.8199 59.3039 51.3322 61.164C47.8445 63.0241 43.953 63.998 40.0003 64.0001ZM40.0003 16.6667C42.6525 16.6667 45.196 17.7203 47.0714 19.5957C48.9468 21.471 50.0003 24.0146 50.0003 26.6667C50.0003 29.3189 48.9468 31.8625 47.0714 33.7378C45.196 35.6132 42.6525 36.6667 40.0003 36.6667C37.3482 36.6667 34.8046 35.6132 32.9293 33.7378C31.0539 31.8625 30.0003 29.3189 30.0003 26.6667C30.0003 24.0146 31.0539 21.471 32.9293 19.5957C34.8046 17.7203 37.3482 16.6667 40.0003 16.6667ZM40.0003 6.66675C35.6229 6.66675 31.2884 7.52894 27.2442 9.2041C23.2 10.8793 19.5254 13.3346 16.4301 16.4299C10.1789 22.6811 6.66699 31.1595 6.66699 40.0001C6.66699 48.8406 10.1789 57.3191 16.4301 63.5703C19.5254 66.6656 23.2 69.1209 27.2442 70.7961C31.2884 72.4712 35.6229 73.3334 40.0003 73.3334C48.8409 73.3334 57.3193 69.8215 63.5706 63.5703C69.8218 57.3191 73.3337 48.8406 73.3337 40.0001C73.3337 21.5667 58.3337 6.66675 40.0003 6.66675Z" fill="white"/>
</svg>
